<svg width="20" height="20" viewBox="0 0 20 20" fill="none" xmlns="http://www.w3.org/2000/svg">
<g clip-path="url(#clip0_370_53)">
<path d="M12.4997 5.8335H14.9997C15.5468 5.8335 16.0887 5.94127 16.5942 6.15066C17.0997 6.36006 17.559 6.66697 17.946 7.05388C18.3329 7.4408 18.6398 7.90013 18.8492 8.40565C19.0586 8.91117 19.1663 9.45299 19.1663 10.0002C19.1663 10.5473 19.0586 11.0892 18.8492 11.5947C18.6398 12.1002 18.3329 12.5595 17.946 12.9464C17.559 13.3334 17.0997 13.6403 16.5942 13.8497C16.0887 14.0591 15.5468 14.1668 14.9997 14.1668H12.4997M7.49967 14.1668H4.99967C4.4525 14.1668 3.91068 14.0591 3.40516 13.8497C2.89964 13.6403 2.44031 13.3334 2.0534 12.9464C1.27199 12.165 0.833008 11.1052 0.833008 10.0002C0.833008 8.89509 1.27199 7.83529 2.0534 7.05388C2.8348 6.27248 3.89461 5.8335 4.99967 5.8335H7.49967" stroke="white" stroke-opacity="0.3" stroke-width="2" stroke-linecap="round" stroke-linejoin="round"/>
<path d="M6.66699 10H13.3337" stroke="white" stroke-opacity="0.3" stroke-width="2" stroke-linecap="round" stroke-linejoin="round"/>
</g>
<defs>
<clipPath id="clip0_370_53">
<rect width="20" height="20" fill="white"/>
</clipPath>
</defs>
</svg>
