<svg width="20" height="20" viewBox="0 0 20 20" fill="none" xmlns="http://www.w3.org/2000/svg">
<path d="M9.16171 1.5332C12.7691 0.995355 16.3834 0.488751 19.9977 0C20 3.08649 19.9977 6.17076 20 9.25725C16.388 9.27064 12.776 9.3242 9.16171 9.33536C9.15941 6.73315 9.15941 4.13318 9.16171 1.5332ZM0 2.77851C2.71645 2.37011 5.44457 2.01749 8.17247 1.68496C8.17476 4.24477 8.17476 6.80234 8.17705 9.36214C5.45144 9.35991 2.72561 9.40008 0 9.39339V2.77851ZM0 10.199C2.72355 10.1901 5.44663 10.2325 8.16995 10.2281C8.16995 12.7946 8.17682 15.3611 8.17247 17.9276C5.45144 17.5345 2.72561 17.1911 0 16.8318V10.199ZM9.14567 10.3017H19.9977C20.0023 13.3793 19.9977 16.4568 19.9977 19.5366C16.3903 19.0099 12.776 18.5212 9.16171 18.0438C9.15712 15.4637 9.15025 12.8838 9.14567 10.3017Z" fill="white"/>
</svg>
